<svg xmlns="http://www.w3.org/2000/svg" data-name="Layer 1" viewBox="0 0 250 312.5" x="0px" y="0px"><title>Construction</title><path d="M125,227.27c-6.84,0-12.41-5.89-12.41-13.13,0-2.86,1.68-7,5.13-12.73,1.85-3,3.76-5.78,4.73-7.13a3.12,3.12,0,0,1,5.1,0c1,1.36,2.88,4.09,4.72,7.13,3.46,5.7,5.14,9.87,5.14,12.73C137.41,221.38,131.84,227.27,125,227.27Zm0-29.67c-1,1.43-2.45,3.56-3.85,5.88-4,6.54-4.56,9.49-4.56,10.66,0,5,3.77,9.13,8.41,9.13s8.41-4.09,8.41-9.13c0-1.17-.59-4.11-4.56-10.66C127.45,201.17,126,199,125,197.6Z"/><path d="M125,69.11c-31.37,0-64.72-6.48-64.72-18.49S93.63,32.12,125,32.12s64.72,6.48,64.72,18.5S156.37,69.11,125,69.11Zm0-33c-37.62,0-60.72,8.44-60.72,14.5S87.38,65.11,125,65.11s60.72-8.44,60.72-14.49S162.62,36.12,125,36.12Z"/><path d="M116,183.18a4.86,4.86,0,0,1-4.85-4.87V148.46a11,11,0,0,0-2.64-7.13L49.69,72.79a16,16,0,0,1-3.85-10.36l0-11.81C45.81,35,80.59,22.73,125,22.73S204.19,35,204.19,50.62l0,11.81a16,16,0,0,1-3.85,10.36l-58.83,68.54a11,11,0,0,0-2.64,7.13v22a4.85,4.85,0,0,1-2.92,4.46l-18,7.82A5,5,0,0,1,116,183.18Zm9-156.45c-45,0-75.19,12.35-75.19,23.89l0,11.8a12,12,0,0,0,2.88,7.76l58.83,68.54a15,15,0,0,1,3.61,9.74v29.85a.81.81,0,0,0,.39.72.79.79,0,0,0,.81.07l18-7.82a.85.85,0,0,0,.51-.79v-22a15,15,0,0,1,3.61-9.74l58.83-68.54a12,12,0,0,0,2.88-7.76l0-11.81C200.18,39.08,170,26.73,125,26.73Z"/></svg>